{"title":"House.Of.Cards.2013.S04E02.PROPER.WEBRip.x264-TURBO","uid":13749657,"size":150496028,"categoryP":"video","categoryS":"tv_shows","magnet":"?xt=urn:btih:2588b9f09bc8e9848497c8a7ae92ec3166b6c5ec&amp;dn=House.Of.Cards.2013.S04E02.PROPER.WEBRip.x264-TURBO&amp;tr=udp%3A%2F%2Ftracker.leechers-paradise.org%3A6969&amp;tr=udp%3A%2F%2Fzer0day.ch%3A1337&amp;tr=udp%3A%2F%2Fopen.demonii.com%3A1337&amp;tr=udp%3A%2F%2Ftracker.coppersurfer.tk%3A6969&amp;tr=udp%3A%2F%2Fexodus.desync.com%3A6969","seeders":2,"leechers":0,"uploader":"Cybotage","files":3,"time":1457142559,"description":"Mediainfo :\r\n\r\nVideo\r\nID : 1\r\nFormat : AVC\r\nFormat/Info : Advanced Video Codec\r\nFormat profile :   \r\nFormat settings, CABAC : Yes\r\nFormat settings, ReFrames : 8 frames\r\nCodec ID : avc1\r\nCodec ID/Info : Advanced Video Coding\r\nDuration : 41mn 13s\r\nBit rate : 421 Kbps\r\nMaximum bit rate : 3 148 Kbps\r\nWidth : 720 pixels\r\nHeight : 360 pixels\r\nDisplay aspect ratio : 2.000\r\nFrame rate mode : Constant\r\nFrame rate : 23.976 (24000/1001) fps\r\nColor space : YUV\r\nChroma subsampling : 4:2:0\r\nBit depth : 8 bits\r\nScan type : Progressive\r\nBits/(Pixel*Frame) : 0.068\r\nStream size : 124 MiB (86%)\r\nTitle : Chapter 41\r\nWriting library : x264 core 148 r2665 a01e339\r\nEncoding settings : cabac=1 / ref=8 / deblock=1:0:0 / analyse=0x3:0x133 / me=umh / subme=9 / psy=1 / psy_rd=1.00:0.00 / mixed_ref=1 / me_range=16 / chroma_me=1 / trellis=2 / 8x8dct=1 / cqm=0 / deadzone=21,11 / fast_pskip=1 / chroma_qp_offset=-2 / threads=11 / lookahead_threads=1 / sliced_threads=0 / nr=0 / decimate=1 / interlaced=0 / bluray_compat=0 / constrained_intra=0 / bframes=3 / b_pyramid=2 / b_adapt=2 / b_bias=0 / direct=3 / weightb=1 / open_gop=0 / weightp=2 / keyint=240 / keyint_min=24 / scenecut=40 / intra_refresh=0 / rc_lookahead=60 / rc=crf / mbtree=1 / crf=19.0 / qcomp=0.60 / qpmin=0 / qpmax=69 / qpstep=4 / ip_ratio=1.40 / aq=1:1.00\r\nEncoded date : UTC 2016-03-04 18:49:07\r\nTagged date : UTC 2016-03-04 18:49:13\r\n\r\nAudio\r\nID : 2\r\nFormat : AAC\r\nFormat/Info : Advanced Audio Codec\r\nFormat profile : HE-AAC / LC\r\nCodec ID : 40\r\nDuration : 41mn 13s\r\nBit rate mode : Variable\r\nBit rate : 62.7 Kbps\r\nMaximum bit rate : 73.5 Kbps\r\nChannel(s) : 2 channels\r\nChannel positions : Front: L R\r\nSampling rate : 48.0 KHz / 24.0 KHz\r\nFrame rate : 23.438 fps (1024 spf)\r\nCompression mode : Lossy\r\nStream size : 18.5 MiB (13%)\r\nTitle : Chapter 41\r\nLanguage : English\r\nEncoded date : UTC 2016-03-04 18:49:12\r\nTagged date : UTC 2016-03-04 18:49:13\r\n\r\nText\r\nID : 3\r\nFormat : Timed Text\r\nCodec ID : tx3g\r\nDuration : 38mn 25s\r\nBit rate mode : Variable\r\nBit rate : 99 bps\r\nStream size : 27.8 KiB (0%)\r\nTitle : Chapter 41\r\nLanguage : English\r\nForced : No\r\nEncoded date : UTC 2016-03-04 18:49:13\r\nTagged date : UTC 2016-03-04 18:49:13","torrent":{"xt":"urn:btih:2588b9f09bc8e9848497c8a7ae92ec3166b6c5ec","amp;dn":"House.Of.Cards.2013.S04E02.PROPER.WEBRip.x264-TURBO","amp;tr":["udp%3A%2F%2Ftracker.leechers-paradise.org%3A6969","udp%3A%2F%2Fzer0day.ch%3A1337","udp%3A%2F%2Fopen.demonii.com%3A1337","udp%3A%2F%2Ftracker.coppersurfer.tk%3A6969","udp%3A%2F%2Fexodus.desync.com%3A6969"],"infoHash":"2588b9f09bc8e9848497c8a7ae92ec3166b6c5ec","infoHashBuffer":{"type":"Buffer","data":[37,136,185,240,155,200,233,132,132,151,200,167,174,146,236,49,102,182,197,236]},"announce":[],"urlList":[]}}